<?xml version="1.0" encoding="utf-8"?>
<!-- Generator: Adobe Illustrator 26.0.1, SVG Export Plug-In . SVG Version: 6.00 Build 0)  -->
<svg version="1.1" id="Layer_1" xmlns="http://www.w3.org/2000/svg" xmlns:xlink="http://www.w3.org/1999/xlink" x="0px" y="0px"
	 viewBox="0 0 1000 1000" style="enable-background:new 0 0 1000 1000;" xml:space="preserve">
<style type="text/css">
	.st0{fill:#FFFFFF;}
	.st1{fill:#6200ED;}
	.st2{fill:#132231;}
</style>
<path class="st0" d="M755.9,938.9H236c-102.2,0-185.1-82.9-185.1-185.1V234c0-102.2,82.9-185.1,185.1-185.1h519.9
	c102.2,0,185.1,82.9,185.1,185.1v519.9C940.9,856.1,858.1,938.9,755.9,938.9z"/>
<g>
	<g>
		<path class="st1" d="M493.9,567.8c-32.3,0-58.6-23.7-60.1-53.4h-0.1V197.8h-44.5v58.5v70.5v187.6h0c0,0,0,0.1,0,0.1
			c0,55.4,48.3,100.3,107.8,100.3c39.1,0,73.4-19.4,92.3-48.4l-38.7-36.2C542.5,552.1,520.2,567.8,493.9,567.8z"/>
		<polygon class="st2" points="321.3,197.8 272.3,197.8 272.3,611.6 321.3,611.6 321.3,264 321.3,259.7 324.5,259.7 364.9,301.6 
			364.9,231 332.9,197.8 		"/>
		<polygon class="st2" points="671,416.1 719.9,451.7 719.9,275.3 671,275.3 		"/>
		<rect x="671" y="197.8" class="st1" width="49" height="47.1"/>
		<polygon class="st2" points="671,541.5 671,548.2 458,327.5 458,398 664.1,611.6 719.9,611.6 719.9,491.3 671,455.8 		"/>
		<polygon class="st1" points="602,197.8 557.5,197.8 557.5,430.6 557.5,430.6 602,476.7 		"/>
	</g>
	<g>
		<path class="st1" d="M196.6,777.3c3.8,4.4,9,6.7,15.5,6.7c6.5,0,11.7-2.2,15.5-6.7c3.8-4.4,5.7-10.5,5.7-18.1v-46h14v46.6
			c0,12-3.3,21.2-9.9,27.7c-6.6,6.5-15,9.7-25.3,9.7c-10.3,0-18.8-3.2-25.3-9.7c-6.6-6.5-9.9-15.7-9.9-27.7v-46.6h14v46
			C190.9,766.8,192.8,772.9,196.6,777.3z"/>
		<path class="st1" d="M331.7,713.2h14v83.2h-15.2l-47.1-60.7v60.7h-14v-83.2h14l48.3,62.1V713.2z"/>
		<path class="st1" d="M368.8,713.2h14v83.2h-14V713.2z"/>
		<path d="M537.7,713.1h19.4l-28.2,83.3h-19.4L492,736.3l-17.7,60.1H455L427,713.1h20.2l18.1,63.5l18-63.5h18.4l18.2,63.5
			L537.7,713.1z"/>
		<path d="M626.4,717.3c6.8,3.7,12.2,8.9,16.1,15.4c3.9,6.5,5.9,13.8,5.9,21.8c0,8-2,15.3-5.9,21.9c-3.9,6.6-9.3,11.8-16.1,15.5
			c-6.8,3.8-14.4,5.7-22.7,5.7c-8.3,0-15.9-1.9-22.7-5.7c-6.8-3.8-12.2-8.9-16.1-15.5c-3.9-6.5-5.9-13.9-5.9-21.9
			c0-8,2-15.3,5.9-21.8c3.9-6.5,9.3-11.7,16.1-15.4c6.8-3.7,14.4-5.6,22.8-5.6C612,711.7,619.5,713.6,626.4,717.3z M591,731.7
			c-4,2.3-7.1,5.5-9.4,9.6c-2.3,4-3.5,8.5-3.5,13.3c0,4.9,1.2,9.4,3.5,13.4c2.3,4,5.5,7.3,9.4,9.6c3.9,2.4,8.2,3.6,12.8,3.6
			c4.6,0,8.8-1.2,12.7-3.5c3.8-2.3,6.9-5.5,9.2-9.6c2.3-4.1,3.4-8.6,3.4-13.5c0-4.8-1.1-9.3-3.4-13.3s-5.3-7.2-9.2-9.6
			c-3.8-2.3-8.1-3.5-12.7-3.5C599.3,728.2,595,729.3,591,731.7z"/>
		<path d="M711.9,796.3l-13.2-23.8h-1.8h-17.4v23.8h-18.8v-83.3h36.2c10.9,0,19.3,2.5,25.2,7.6c5.9,5,8.9,12.2,8.9,21.4
			c0,6.4-1.3,11.9-4,16.5c-2.7,4.6-6.5,8-11.6,10.4l17.7,27.5H711.9z M679.5,756.8h17.4c5.2,0,9.3-1.2,12.1-3.6
			c2.8-2.4,4.2-6,4.2-10.6c0-4.6-1.4-8.1-4.2-10.4c-2.8-2.3-6.8-3.5-12.1-3.5h-17.4V756.8z"/>
		<path d="M824.1,796.3h-22.5l-24-34.1l-11.9,13.2v20.9h-18.8v-83.3h18.8v38.8l34.5-38.8h21.9l-31.4,34.6L824.1,796.3z"/>
	</g>
</g>
</svg>
